{"title":"50 Cent Feat. Akon - I'll Still Kill (Dirty) 720p [Sbyky]","uid":7990212,"size":78349086,"categoryP":"video","categoryS":"music_videos","magnet":"?xt=urn:btih:e47bef78b621ed8f3a9aa812454ff169c28a3a6c&amp;dn=50+Cent+Feat.+Akon+-+I%27ll+Still+Kill+%28Dirty%29+720p+%5BSbyky%5D&amp;tr=udp%3A%2F%2Ftracker.openbittorrent.com%3A80&amp;tr=udp%3A%2F%2Fopen.demonii.com%3A1337&amp;tr=udp%3A%2F%2Ftracker.coppersurfer.tk%3A6969&amp;tr=udp%3A%2F%2Fexodus.desync.com%3A6969","seeders":1,"leechers":1,"uploader":"Sbyky","files":-1,"time":1357398634,"description":" &lt;a href=&quot;http://kastatic.com/i2/u/1813980/0aq32UMZvX.gif&quot; rel=&quot;nofollow&quot; target=&quot;_NEW&quot;&gt;http://kastatic.com/i2/u/1813980/0aq32UMZvX.gif&lt;/a&gt;\n\nCover &lt;a href=&quot;\nhttp://www.shotpix.com/images/73806047424352905633.png&quot; rel=&quot;nofollow&quot; target=&quot;_NEW&quot;&gt;\nhttp://www.shotpix.com/images/73806047424352905633.png&lt;/a&gt;\n\nGeneral\nComplete name                            : 50 Cent Feat. Akon - I'll Still Kill (Dirty) 720p [Sbyky].avi\nFormat                                   : AVI\nFormat/Info                              : Audio Video Interleave\nFile size                                : 74.7 MiB\nDuration                                 : 3mn 51s\nOverall bit rate                         : 2 712 Kbps\n\nVideo\nID                                       : 0\nFormat                                   : AVC\nFormat/Info                              : Advanced Video Codec\nFormat profile                           : &lt;a class=&quot;__cf_email__&quot; href=&quot;/cdn-cgi/l/email-protection&quot; data-cfemail=&quot;2f674648476f631a011e&quot;&gt;[email&amp;#160;protected]&lt;/a&gt;&lt;script cf-hash='f9e31' type=&quot;text/javascript&quot;&gt;\n/* &lt;![CDATA[ */!function(){try{var t=&quot;currentScript&quot;in document?document.currentScript:function(){for(var t=document.getElementsByTagName(&quot;script&quot;),e=t.length;e--;)if(t[e].getAttribute(&quot;cf-hash&quot;))return t[e]}();if(t&amp;&amp;t.previousSibling){var e,r,n,i,c=t.previousSibling,a=c.getAttribute(&quot;data-cfemail&quot;);if(a){for(e=&quot;&quot;,r=parseInt(a.substr(0,2),16),n=2;a.length-n;n+=2)i=parseInt(a.substr(n,2),16)^r,e+=String.fromCharCode(i);e=document.createTextNode(e),c.parentNode.replaceChild(e,c)}}}catch(u){}}();/* ]]&gt; */&lt;/script&gt;\nFormat settings, CABAC                   : Yes\nFormat settings, ReFrames                : 2 frames\nCodec ID                                 : H264\nDuration                                 : 3mn 51s\nBit rate                                 : 2 540 Kbps\nWidth                                    : 1 280 pixels\nHeight                                   : 720 pixels\nDisplay aspect ratio                     : 16:9\nFrame rate                               : 30.000 fps\nColor space                              : YUV\nChroma subsampling                       : 4:2:0\nBit depth                                : 8 bits\nScan type                                : Progressive\nBits/(Pixel*Frame)                       : 0.092\nStream size                              : 70.0 MiB (94%)\n\nAudio\nID                                       : 1\nFormat                                   : MPEG Audio\nFormat version                           : Version 1\nFormat profile                           : Layer 3\nCodec ID                                 : 55\nCodec ID/Hint                            : MP3\nDuration                                 : 3mn 51s\nBit rate mode                            : Constant\nBit rate                                 : 160 Kbps\nChannel(s)                               : 2 channels\nSampling rate                            : 44.1 KHz\nCompression mode                         : Lossy\nStream size                              : 4.41 MiB (6%)\nAlignment                                : Split accross interleaves\nInterleave, duration                     : 33 ms (1.00 video frame)\nInterleave, preload duration             : 103 ms\n\nShared By Sbyky &lt;a href=&quot;\nhttp://kastatic.com/i2/u/1813980/bQg62viaEG.gif&quot; rel=&quot;nofollow&quot; target=&quot;_NEW&quot;&gt;\nhttp://kastatic.com/i2/u/1813980/bQg62viaEG.gif&lt;/a&gt;","torrent":{"xt":"urn:btih:e47bef78b621ed8f3a9aa812454ff169c28a3a6c","amp;dn":"50+Cent+Feat.+Akon+-+I%27ll+Still+Kill+%28Dirty%29+720p+%5BSbyky%5D","amp;tr":["udp%3A%2F%2Ftracker.openbittorrent.com%3A80","udp%3A%2F%2Fopen.demonii.com%3A1337","udp%3A%2F%2Ftracker.coppersurfer.tk%3A6969","udp%3A%2F%2Fexodus.desync.com%3A6969"],"infoHash":"e47bef78b621ed8f3a9aa812454ff169c28a3a6c","infoHashBuffer":{"type":"Buffer","data":[228,123,239,120,182,33,237,143,58,154,168,18,69,79,241,105,194,138,58,108]},"announce":[],"urlList":[]}}